<svg width="60" height="50" viewBox="0 0 60 50" fill="none" xmlns="http://www.w3.org/2000/svg">
<mask id="mask0_29_69" style="mask-type:luminance" maskUnits="userSpaceOnUse" x="0" y="0" width="60" height="7">
<path d="M0 0H59.0402V6.27539H0V0Z" fill="white"/>
</mask>
<g mask="url(#mask0_29_69)">
<path d="M2.95207 6.19898H56.0884C57.1431 6.19898 58.1176 5.60826 58.645 4.64933C59.1723 3.68994 59.1723 2.50856 58.645 1.54965C58.1176 0.590747 57.1431 0 56.0884 0H2.95207C1.89738 0 0.922852 0.590723 0.395508 1.54965C-0.131836 2.50856 -0.131836 3.69005 0.395508 4.64933C0.922852 5.60823 1.89738 6.19898 2.95207 6.19898Z" fill="#476735"/>
</g>
<mask id="mask1_29_69" style="mask-type:luminance" maskUnits="userSpaceOnUse" x="0" y="43" width="60" height="7">
<path d="M0 43.4355H59.0402V49.7109H0V43.4355Z" fill="white"/>
</mask>
<g mask="url(#mask1_29_69)">
<path d="M56.0883 43.4528H2.95195C1.89726 43.4528 0.92273 44.0435 0.395386 45.0029C-0.131958 45.9618 -0.131958 47.1433 0.395386 48.1022C0.92273 49.0616 1.89726 49.6523 2.95195 49.6523H56.0883C57.143 49.6523 58.1175 49.0616 58.6448 48.1022C59.1722 47.1433 59.1722 45.9618 58.6448 45.0029C58.1175 44.0435 57.143 43.4528 56.0883 43.4528Z" fill="#476735"/>
</g>
<mask id="mask2_29_69" style="mask-type:luminance" maskUnits="userSpaceOnUse" x="0" y="21" width="60" height="8">
<path d="M0 21.6562H59.0402V28.0547H0V21.6562Z" fill="white"/>
</mask>
<g mask="url(#mask2_29_69)">
<path d="M56.0883 21.7559H2.95195C1.89726 21.7559 0.92273 22.3466 0.395386 23.3055C-0.131958 24.2644 -0.131958 25.4463 0.395386 26.4052C0.92273 27.3641 1.89726 27.9548 2.95195 27.9548H56.0883C57.143 27.9548 58.1175 27.3641 58.6448 26.4052C59.1722 25.4463 59.1722 24.2644 58.6448 23.3055C58.1175 22.3466 57.143 21.7559 56.0883 21.7559Z" fill="#476735"/>
</g>
</svg>
