<svg width="102" height="95" viewBox="0 0 102 95" fill="none" xmlns="http://www.w3.org/2000/svg">
<g filter="url(#filter0_d_29_97)">
<path d="M101.998 59.369V59.3656C101.986 49.9193 97.9525 40.8627 90.779 34.1827C83.6068 27.5032 73.882 23.7453 63.7383 23.7352L12.4113 23.7352L31.6934 5.77113C32.6003 4.91144 32.9492 3.66781 32.6102 2.50509C32.2721 1.3423 31.2965 0.433775 30.048 0.118078C28.7994 -0.196825 27.4641 0.128179 26.541 0.972692L1.04877 24.7222L1.03793 24.7289L1.00628 24.7727C0.723281 25.0514 0.493658 25.3739 0.327289 25.725C0.272139 25.8454 0.225125 25.9683 0.186247 26.0938C0.0650956 26.476 0.00180765 26.8735 0 27.2734C0.0162742 27.6102 0.0858867 27.9428 0.207039 28.2602C0.227833 28.3141 0.226929 28.3705 0.250436 28.4236L0.25134 28.4278V28.4269C0.421315 28.7932 0.660899 29.1275 0.95746 29.4154C0.990912 29.45 1.00176 29.4946 1.03793 29.5283L26.5417 53.282C27.2234 53.9287 28.1529 54.2941 29.1248 54.2983C30.0967 54.3025 31.0306 53.9447 31.7177 53.3039C32.4049 52.664 32.7891 51.7951 32.7855 50.8891C32.781 49.9839 32.3877 49.1184 31.6942 48.4835L12.4096 30.5229L63.7389 30.5229C74.789 30.5457 84.9891 36.0482 90.5065 44.964C96.0243 53.879 96.0243 64.857 90.5065 73.7725C84.9887 82.6874 74.7885 88.1909 63.7389 88.2127L32.7612 88.2127C31.4593 88.2127 30.2569 88.8593 29.6058 89.9093C28.9549 90.9593 28.9549 92.2534 29.6058 93.3034C30.2568 94.3533 31.4593 95 32.7612 95L63.7389 95C73.8868 94.9992 83.6178 91.2455 90.7935 84.5634C97.9692 77.8813 102 68.8181 102 59.3676L101.998 59.369Z" fill="#476735"/>
</g>
<defs>
<filter id="filter0_d_29_97" x="0" y="0" width="113" height="103" filterUnits="userSpaceOnUse" color-interpolation-filters="sRGB">
<feFlood flood-opacity="0" result="BackgroundImageFix"/>
<feColorMatrix in="SourceAlpha" type="matrix" values="0 0 0 0 0 0 0 0 0 0 0 0 0 0 0 0 0 0 127 0" result="hardAlpha"/>
<feOffset dx="7" dy="4"/>
<feGaussianBlur stdDeviation="2"/>
<feComposite in2="hardAlpha" operator="out"/>
<feColorMatrix type="matrix" values="0 0 0 0 0 0 0 0 0 0 0 0 0 0 0 0 0 0 0.41 0"/>
<feBlend mode="normal" in2="BackgroundImageFix" result="effect1_dropShadow_29_97"/>
<feBlend mode="normal" in="SourceGraphic" in2="effect1_dropShadow_29_97" result="shape"/>
</filter>
</defs>
</svg>
