<svg width="152" height="155" viewBox="0 0 152 155" fill="none" xmlns="http://www.w3.org/2000/svg">
<path d="M26.2285 16.3301L26.4475 18.4304C33.3779 18.1386 38.8839 15.6272 44.3901 13.1148C48.3534 11.1927 52.0805 9.53084 56.3363 8.62144L55.7491 6.5941C51.1584 7.42603 47.0289 9.30969 43.1002 11.0821C37.7602 13.6328 32.6219 16.0722 26.2285 16.3301Z" fill="white"/>
<path d="M26.3288 16.6664C26.2941 16.8164 26.2941 16.8164 26.4271 17.0039C28.6219 18.9297 28.6219 18.9297 28.8239 18.8184L29.0259 18.7071L30.9206 15.8347L31.088 15.8734C32.931 15.5104 35.8807 14.9302 36.8542 14.5254C36.987 14.714 37.1532 14.7524 37.2862 14.9399C37.5507 15.3157 37.7181 15.3544 37.8855 15.393C38.0528 15.4317 38.0528 15.4316 38.0875 15.2817C38.0875 15.2817 38.5246 14.91 39.1649 14.4272C40.4432 13.4611 41.5207 12.6066 41.9937 12.0851C43.1575 13.1423 43.1575 13.1423 43.3248 13.1809C43.4922 13.2196 43.4922 13.2196 43.5268 13.0696C43.5268 13.0696 43.7632 12.8094 44.4716 12.0265C44.9087 11.6548 45.4163 10.9834 45.6526 10.7233L46.851 11.6305C46.9838 11.8191 47.1846 11.7075 47.3866 11.5962C47.5886 11.4849 47.4556 11.2974 47.3228 11.1088L46.0261 9.86411C45.8933 9.67553 45.6925 9.7871 45.4905 9.89839C45.4559 10.0483 44.8167 10.5314 44.074 11.4631C43.8376 11.7233 43.5676 12.1347 43.3658 12.245C43.0669 12.018 42.8012 11.6419 42.4676 11.5649C42.0356 11.1505 42.0356 11.1505 42.0013 11.2993C41.8339 11.2607 41.8339 11.2607 41.7993 11.4106C41.5629 11.6708 39.846 13.0094 38.7697 13.8641C38.3672 14.086 38.1306 14.3472 37.9286 14.4585C37.3639 13.8554 37.1966 13.8168 37.0304 13.7784C36.863 13.7398 36.8284 13.8897 36.8284 13.8897C36.592 14.1499 33.8097 14.7687 31.2296 15.2763L31.0622 15.2377C30.8948 15.1991 30.7286 15.1607 30.694 15.3106L28.7993 18.183C28.2 17.7299 27.2036 16.7113 27.2036 16.7113C27.0709 16.5228 26.8701 16.6343 26.6681 16.7456C26.3632 16.5173 26.3288 16.6664 26.3288 16.6664Z" fill="white"/>
<path d="M52.3215 8.48286C52.2869 8.6328 52.2869 8.63279 52.4199 8.82032C52.5527 9.0089 52.7535 8.89733 52.9555 8.78604C53.1574 8.67474 53.0244 8.48721 52.8917 8.29863C52.7243 8.25999 52.5569 8.22135 52.3215 8.48286Z" fill="white"/>
<path d="M25.0437 18.4197C33.2587 20.9468 48.6164 30.6395 55.6085 35.4066L56.8934 33.6536C49.7333 28.8476 34.0409 19.0778 25.5274 16.3236L25.0437 18.4197Z" fill="white"/>
<path d="M32.8879 21.0194C32.8533 21.1693 32.8533 21.1693 32.9863 21.3568L33.1536 21.3955C33.321 21.4341 33.4526 21.6224 33.4182 21.7713C33.8502 22.1858 33.9483 22.5243 34.3165 22.4514C38.5441 25.4771 51.3972 34.5914 54.2141 33.8227C55.0778 34.6527 55.0778 34.6527 55.2451 34.6913C55.4125 34.73 55.4125 34.73 55.4471 34.58C55.6491 34.4687 55.5161 34.2812 55.3833 34.0926L55.216 34.054C55.0486 34.0153 54.6167 33.6009 54.4839 33.4123C54.185 33.1853 54.2193 33.0364 54.0176 33.1467C54.0176 33.1467 53.8502 33.1081 53.8156 33.258C52.9055 34.1511 43.0431 28.0917 34.4201 22.0026L34.2527 21.9639C34.0853 21.9253 33.9537 21.737 33.9881 21.5881C33.7235 21.2123 33.4234 20.985 33.2561 20.9464C33.0887 20.9078 33.0541 21.0577 32.8879 21.0194Z" fill="white"/>
<path d="M112.744 149.953C124.476 133.431 130.08 112.971 132.865 93.2823C134.909 79.0949 132.142 59.0665 113.738 54.1882C104.619 51.7683 95.5575 55.1928 89.1932 60.6588C85.8927 63.5224 82.7544 67.2109 80.9856 71.059C79.1827 75.0558 78.4688 76.6261 81.453 80.4668C84.1726 83.9318 85.9066 84.8048 90.3006 83.298C101.942 79.3649 100.414 63.8801 98.8754 54.5399C94.566 25.9599 66.819 21.9186 41.1896 20.8884C40.1531 20.807 38.5046 17.2733 39.5422 17.3551C60.8207 18.1692 85.6997 20.918 96.5997 40.7742C102.378 51.5661 110.199 90.0972 86.891 87.3982C66.3259 85.0148 82.1018 60.1267 90.4081 54.6339C107.625 43.3187 126.987 54.7242 133.456 71.6656C137.726 82.8977 135.733 94.5746 133.343 105.688C129.807 122.527 125.138 138.945 114.994 153.154C114.454 153.974 112.034 150.735 112.742 149.953L112.744 149.953Z" fill="white"/>
</svg>
