<svg width="140" height="60" viewBox="0 0 140 60" fill="none" xmlns="http://www.w3.org/2000/svg">
<path d="M129.556 29.9761C129.556 38.9382 123.521 47.3815 113.017 47.3815L112.593 47.387V3.20358H101.915V56.7626H109.192C131.147 56.7626 139.533 42.906 139.533 29.9761V29.2936H129.556V29.9761Z" fill="#231F20"/>
<path d="M22.439 0.430603H21.1009C10.5944 0.430603 4.34275 6.91772 2.12657 12.9248C0.445638 17.4697 0.466687 22.6472 0.466687 29.1981V30.8046C0.466687 37.3223 0.445638 42.5026 2.12657 47.0752C4.33673 53.0573 10.5944 59.5694 21.1009 59.5694H22.439C32.9306 59.5694 39.2123 53.0573 41.4194 47.0752C43.1003 42.5026 43.0673 37.3223 43.0673 30.8046V29.1981C43.0673 22.6472 43.1003 17.4697 41.4194 12.9248C39.2123 6.91772 32.9306 0.430603 22.439 0.430603ZM11.2349 17.023C12.2452 12.6668 16.5603 9.6341 21.1009 9.6341H22.439C26.6369 9.6341 30.6212 12.2228 32.0074 16.0713L10.5643 32.647C10.5703 31.9755 10.5703 31.3596 10.5703 30.8046V29.1981C10.5703 25.949 10.459 20.3664 11.2349 17.023ZM32.2961 42.9409C31.2767 47.3332 26.9887 50.3215 22.439 50.3215H21.1009C16.9061 50.3215 12.9188 47.7522 11.5265 43.9315L32.9636 27.3558C32.9606 28.0245 32.9576 28.6571 32.9576 29.1981V30.8046C32.9576 34.0593 33.0629 39.6169 32.2961 42.9409Z" fill="#231F20"/>
<path d="M52.2399 13.053H92.1822V3.19751H52.2399V13.053Z" fill="#231F20"/>
<path d="M52.239 30.8271H67.205V37.2643C67.205 43.2742 63.4733 47.5388 56.3196 47.5388H55.6219V56.7645H56.5631C68.901 56.7645 77.2034 48.2908 77.2034 37.4974V30.8271H92.1814V20.9744H52.239V30.8271Z" fill="#231F20"/>
</svg>
